<svg width="338" height="188" viewBox="0 0 338 188" fill="none" xmlns="http://www.w3.org/2000/svg">
<path d="M194.31 6.83063C193.18 4.51063 191.41 2.65061 189.23 1.47061L189.03 1.37061L188.79 1.2406C188.23 0.960603 187.61 0.710613 186.94 0.500613C183.7 -0.459387 180.28 -0.0293956 177.3 1.7106C174.36 3.4206 172.17 6.22063 171.14 9.61063C170.13 12.9806 170.39 16.5306 171.91 19.5806C173.44 22.6806 176.05 24.9406 179.28 25.9106C180.4 26.2506 181.55 26.4206 182.7 26.4206C184.84 26.4206 187 25.8206 188.91 24.7006C191.86 22.9906 194.04 20.1806 195.06 16.8006C196.1 13.4606 195.83 9.91063 194.31 6.83063ZM177.21 20.4606C176.45 19.7606 175.82 18.9106 175.32 17.9106C174.24 15.7006 174.04 13.1506 174.79 10.7006C175.15 9.48063 175.73 8.36063 176.48 7.39063C177.23 6.42063 178.16 5.60062 179.23 4.98062C180.34 4.32062 181.59 3.92061 182.86 3.81061C182.1 4.46061 181.52 5.18062 181.16 5.98062C180.61 7.18062 180.27 9.13063 181.74 11.6406C182.6 13.1106 182.4 13.4506 180.6 15.1106C179.31 16.3106 177.6 17.8906 177.21 20.4606ZM191.46 15.7206C190.71 18.1806 189.14 20.2106 187.02 21.4506C185.14 22.5506 183.01 22.8906 181 22.4506C180.61 20.2706 181.69 19.2606 183.17 17.8906C184.88 16.3106 187.46 13.9106 184.98 9.72061C184.2 8.39061 184.49 7.77061 184.58 7.56061C184.97 6.71061 186.32 5.86061 188.19 5.28061C189.32 6.08061 190.23 7.1706 190.91 8.5206C191.55 9.8306 191.88 11.3006 191.88 12.7806C191.89 13.7606 191.75 14.7606 191.46 15.7206Z" fill="#2A3720"/>
<path d="M19.39 115.871H15.15L0 150.231H4.24002L7.71002 142.421L9.30002 138.731L17.29 120.681L25.25 138.731L26.86 142.421L30.31 150.231H34.55L19.39 115.871Z" fill="#2A3720"/>
<path d="M71.71 126.881C71.71 120.421 66.15 115.881 59.05 115.881H45.09V150.241H48.99V137.891H58.1L66.79 150.241H71.24L62.34 137.531C67.8 136.391 71.71 132.271 71.71 126.881ZM48.99 134.171V119.591H58.35C63.94 119.591 67.74 122.281 67.74 126.881C67.74 131.481 63.94 134.171 58.35 134.171H48.99Z" fill="#2A3720"/>
<path d="M99.64 115.871H95.4L80.25 150.231H84.49L87.96 142.421L89.55 138.731L97.54 120.681L105.5 138.731L107.11 142.421L110.56 150.231H114.8L99.64 115.871Z" fill="#2A3720"/>
<path d="M137.99 131.571L152.45 115.871H147.29L129.88 134.871V115.871H125.98V150.231H129.88V139.921L135.28 134.221L148.33 150.231H153.39L137.99 131.571Z" fill="#2A3720"/>
<path d="M188.49 115.871V135.971C188.49 142.581 184.15 147.271 178.05 147.271C171.95 147.271 167.59 142.571 167.59 135.971V115.871H163.69V135.971C163.69 144.681 169.63 150.821 178.05 150.821C186.44 150.821 192.39 144.691 192.39 135.971V115.871H188.49Z" fill="#2A3720"/>
<path d="M249.29 115.871V130.871H229.04V115.871H225.14V150.231H229.04V134.561H249.29V150.231H253.19V115.871H249.29Z" fill="#2A3720"/>
<path d="M266.09 115.871V150.231H269.99V115.871H266.09Z" fill="#2A3720"/>
<path d="M286.24 146.521V115.871H282.34V150.231H304.99V146.521H286.24Z" fill="#2A3720"/>
<path d="M318.99 146.521V115.871H315.09V150.231H337.74V146.521H318.99Z" fill="#2A3720"/>
<path d="M107.31 169.145H105.21C105.086 168.541 104.868 168.01 104.558 167.553C104.253 167.096 103.88 166.712 103.44 166.401C103.005 166.085 102.522 165.848 101.992 165.69C101.461 165.532 100.908 165.453 100.332 165.453C99.2816 165.453 98.3302 165.718 97.4777 166.249C96.6307 166.78 95.956 167.562 95.4535 168.595C94.9567 169.628 94.7082 170.896 94.7082 172.397C94.7082 173.899 94.9567 175.167 95.4535 176.2C95.956 177.233 96.6307 178.015 97.4777 178.546C98.3302 179.077 99.2816 179.342 100.332 179.342C100.908 179.342 101.461 179.263 101.992 179.105C102.522 178.947 103.005 178.713 103.44 178.402C103.88 178.086 104.253 177.699 104.558 177.242C104.868 176.779 105.086 176.248 105.21 175.65H107.31C107.152 176.536 106.864 177.329 106.447 178.029C106.029 178.73 105.509 179.325 104.888 179.816C104.267 180.302 103.57 180.672 102.796 180.926C102.028 181.18 101.207 181.307 100.332 181.307C98.8525 181.307 97.5369 180.946 96.3851 180.223C95.2333 179.5 94.3271 178.473 93.6665 177.14C93.0059 175.808 92.6756 174.227 92.6756 172.397C92.6756 170.568 93.0059 168.987 93.6665 167.655C94.3271 166.322 95.2333 165.295 96.3851 164.572C97.5369 163.849 98.8525 163.488 100.332 163.488C101.207 163.488 102.028 163.615 102.796 163.869C103.57 164.123 104.267 164.496 104.888 164.987C105.509 165.473 106.029 166.065 106.447 166.765C106.864 167.46 107.152 168.253 107.31 169.145ZM132.047 172.397C132.047 174.227 131.716 175.808 131.056 177.14C130.395 178.473 129.489 179.5 128.337 180.223C127.185 180.946 125.87 181.307 124.391 181.307C122.911 181.307 121.596 180.946 120.444 180.223C119.292 179.5 118.386 178.473 117.725 177.14C117.065 175.808 116.734 174.227 116.734 172.397C116.734 170.568 117.065 168.987 117.725 167.655C118.386 166.322 119.292 165.295 120.444 164.572C121.596 163.849 122.911 163.488 124.391 163.488C125.87 163.488 127.185 163.849 128.337 164.572C129.489 165.295 130.395 166.322 131.056 167.655C131.716 168.987 132.047 170.568 132.047 172.397ZM130.014 172.397C130.014 170.896 129.763 169.628 129.26 168.595C128.763 167.562 128.089 166.78 127.236 166.249C126.389 165.718 125.441 165.453 124.391 165.453C123.34 165.453 122.389 165.718 121.536 166.249C120.69 166.78 120.015 167.562 119.512 168.595C119.015 169.628 118.767 170.896 118.767 172.397C118.767 173.899 119.015 175.167 119.512 176.2C120.015 177.233 120.69 178.015 121.536 178.546C122.389 179.077 123.34 179.342 124.391 179.342C125.441 179.342 126.389 179.077 127.236 178.546C128.089 178.015 128.763 177.233 129.26 176.2C129.763 175.167 130.014 173.899 130.014 172.397ZM142.286 181.07V163.725H152.686V165.588H144.386V171.449H151.907V173.312H144.386V181.07H142.286ZM162.991 181.07V163.725H173.391V165.588H165.091V171.449H172.612V173.312H165.091V181.07H162.991ZM183.696 181.07V163.725H194.164V165.588H185.796V171.449H193.622V173.312H185.796V179.207H194.299V181.07H183.696ZM204.657 181.07V163.725H215.125V165.588H206.758V171.449H214.583V173.312H206.758V179.207H215.261V181.07H204.657Z" fill="#2A3720"/>
<path d="M76.6 76.5606L68.85 84.3106H75.02L82.77 76.5606H76.6ZM214.24 29.8806L183.19 60.9506L137.7 15.4606L112.14 41.0206H118.31L137.7 21.6306L180.1 64.0306L159.83 84.3206H166L183.2 67.1206L200.4 84.3206H206.56L186.29 64.0306L214.25 36.0706L262.52 84.3206H268.69L214.24 29.8806Z" fill="#2A3720"/>
<path d="M107.69 46.1406C103.62 44.3306 101.38 38.7506 100.94 37.5806C100.72 36.9906 100.16 36.5906 99.53 36.5906C98.91 36.5906 98.34 36.9906 98.12 37.5806C97.68 38.7606 95.45 44.3306 91.37 46.1406C90.89 46.3606 90.59 46.8306 90.59 47.3506C90.59 47.4606 90.61 47.5706 90.64 47.6806C90.84 48.4706 91.71 48.9106 92.45 48.5806C95.94 47.0406 98.24 43.5706 99.52 41.0006C100.81 43.5706 103.11 47.0306 106.6 48.5806C106.77 48.6606 106.95 48.6906 107.12 48.6906C107.7 48.6906 108.25 48.2906 108.41 47.6806C108.58 47.0606 108.28 46.4006 107.69 46.1406Z" fill="#2A3720"/>
<path d="M109.92 58.5706C104.5 56.3606 101.55 49.0206 100.99 47.4806C100.77 46.8706 100.18 46.4706 99.53 46.4706C98.88 46.4706 98.3 46.8806 98.08 47.4806C97.52 49.0206 94.57 56.3606 89.15 58.5706C88.53 58.8206 88.2 59.4806 88.36 60.1306V60.1406C88.57 60.9106 89.41 61.3506 90.15 61.0506C94.94 59.1106 97.97 54.2006 99.53 50.8906C101.1 54.1906 104.13 59.1106 108.92 61.0506C109.67 61.3506 110.5 60.9106 110.71 60.1406V60.1306C110.87 59.4806 110.54 58.8206 109.92 58.5706Z" fill="#2A3720"/>
<path d="M111.05 73.4806C105.04 71.1806 101.33 64.8606 99.54 60.9306C97.74 64.8706 94.03 71.1806 88.03 73.4806C87.29 73.7706 86.45 73.3406 86.25 72.5706C86.08 71.9206 86.42 71.2406 87.05 71.0106C93.56 68.5506 97.09 60.1906 98.05 57.5706C98.28 56.9406 98.87 56.5306 99.54 56.5306C100.21 56.5306 100.8 56.9406 101.03 57.5706C101.99 60.1906 105.52 68.5406 112.03 71.0106C112.66 71.2506 112.99 71.9206 112.83 72.5706C112.63 73.3406 111.79 73.7706 111.05 73.4806Z" fill="#2A3720"/>
<path d="M123.39 55.9106C123.66 56.0406 123.96 56.0406 124.23 55.9306C126.04 55.1306 127.28 53.4606 128.06 52.0406C128.84 53.4606 130.09 55.1306 131.89 55.9306C132.02 55.9906 132.15 56.0106 132.29 56.0106C132.44 56.0106 132.59 55.9806 132.73 55.9106C133 55.7806 133.2 55.5406 133.28 55.2406C133.4 54.7606 133.17 54.2706 132.72 54.0706C130.54 53.1006 129.33 50.0506 129.11 49.4506C128.95 49.0106 128.53 48.7206 128.07 48.7206C127.61 48.7206 127.19 49.0106 127.03 49.4506C126.81 50.0506 125.59 53.1106 123.41 54.0706C122.96 54.2706 122.72 54.7606 122.85 55.2506C122.92 55.5406 123.12 55.7806 123.39 55.9106Z" fill="#2A3720"/>
<path d="M122.1 64.8306C122.36 64.9606 122.66 64.9706 122.93 64.8706C125.4 63.8706 127.06 61.5306 128.06 59.5706C129.06 61.5306 130.72 63.8706 133.19 64.8706C133.31 64.9206 133.44 64.9406 133.57 64.9406C133.73 64.9406 133.88 64.9006 134.03 64.8306C134.29 64.7006 134.49 64.4606 134.56 64.1706C134.69 63.6806 134.43 63.1706 133.96 62.9806C131.03 61.7906 129.42 57.7506 129.13 56.9506C128.97 56.5006 128.54 56.2006 128.06 56.2006C127.58 56.2006 127.16 56.5006 126.99 56.9406C126.7 57.7406 125.09 61.7706 122.16 62.9706C121.69 63.1606 121.43 63.6706 121.56 64.1606C121.64 64.4606 121.83 64.7006 122.1 64.8306Z" fill="#2A3720"/>
<path d="M135.13 72.1806C131.6 70.8406 129.66 66.2306 129.15 64.8506C128.98 64.3906 128.55 64.0906 128.06 64.0906C127.57 64.0906 127.14 64.3906 126.97 64.8506C126.46 66.2306 124.53 70.8506 120.99 72.1806C120.51 72.3606 120.25 72.8806 120.38 73.3806C120.45 73.6606 120.64 73.9006 120.9 74.0306C121.05 74.1106 121.21 74.1406 121.37 74.1406C121.49 74.1406 121.62 74.1206 121.73 74.0706C124.94 72.8406 127 69.5906 128.05 67.4506C129.1 69.5906 131.16 72.8406 134.37 74.0706C134.64 74.1706 134.94 74.1606 135.2 74.0206C135.46 73.8906 135.65 73.6506 135.72 73.3706C135.87 72.8806 135.61 72.3606 135.13 72.1806Z" fill="#2A3720"/>
</svg>
